<?xml version="1.0" standalone="no"?>
<!DOCTYPE svg PUBLIC "-//W3C//DTD SVG 20010904//EN"
 "http://www.w3.org/TR/2001/REC-SVG-20010904/DTD/svg10.dtd">
<svg version="1.0" xmlns="http://www.w3.org/2000/svg"
 width="360.000000pt" height="333.000000pt" viewBox="0 0 360.000000 333.000000"
 preserveAspectRatio="xMidYMid meet">
<metadata>
Created by potrace 1.10, written by Peter Selinger 2001-2011
</metadata>
<g transform="translate(0.000000,333.000000) scale(0.100000,-0.100000)"
fill="#ffffff" stroke="none">
<path d="M1714 3229 c-98 -11 -212 -49 -297 -100 -92 -54 -221 -183 -274 -274
-206 -352 -104 -802 235 -1028 89 -60 103 -63 138 -34 26 22 28 32 34 113 4
69 12 100 32 140 44 84 127 144 223 159 22 3 50 8 62 11 15 3 42 33 77 87 98
149 226 255 378 317 42 16 82 30 88 30 28 0 82 35 96 61 19 37 4 81 -59 175
-130 197 -328 317 -565 344 -48 5 -89 9 -92 9 -3 -1 -37 -5 -76 -10z m245 -51
c128 -24 291 -115 377 -211 83 -91 152 -211 141 -241 -3 -8 -39 -25 -79 -36
-208 -62 -400 -210 -498 -384 -30 -52 -31 -53 -85 -59 -119 -12 -222 -87 -276
-200 -24 -52 -29 -75 -29 -138 0 -104 -11 -113 -86 -68 -81 48 -194 162 -242
244 -174 296 -131 656 108 895 178 177 413 247 669 198z"/>
<path d="M2479 2625 c-147 -29 -266 -95 -384 -211 -122 -120 -204 -276 -221
-419 -6 -45 -4 -53 21 -78 31 -31 57 -34 108 -12 47 20 151 19 210 -1 60 -20
141 -93 173 -155 29 -57 41 -65 148 -90 44 -11 123 -40 174 -65 80 -39 108
-59 186 -137 50 -51 109 -113 132 -140 56 -66 72 -63 159 26 84 85 143 181
181 292 26 74 28 92 28 235 0 143 -2 161 -28 235 -130 376 -505 596 -887 520z
m295 -40 c267 -55 469 -236 558 -501 20 -59 23 -89 23 -214 0 -153 -14 -219
-67 -324 -49 -97 -166 -236 -198 -236 -9 0 -37 29 -63 64 -124 169 -305 286
-510 331 l-77 17 -26 54 c-32 67 -108 137 -180 163 -68 26 -180 28 -245 5 -81
-29 -93 -8 -63 110 8 33 34 99 57 146 34 70 58 102 136 180 121 121 210 170
371 206 78 17 198 17 284 -1z"/>
<path d="M806 2543 c-293 -62 -534 -305 -596 -599 -18 -82 -15 -245 4 -329 36
-154 142 -320 269 -424 154 -126 319 -179 526 -168 197 10 335 71 479 212 102
100 112 126 67 170 -18 18 -35 25 -65 25 -112 0 -231 83 -271 190 -17 46 -20
68 -14 135 11 144 12 137 -37 201 -100 130 -161 291 -173 456 -6 81 -11 97
-33 121 -30 31 -52 33 -156 10z m150 -143 c6 -63 20 -142 29 -175 23 -80 87
-206 139 -273 22 -30 45 -61 51 -68 6 -9 5 -25 -3 -47 -19 -53 -15 -168 9
-231 43 -117 156 -201 287 -214 47 -5 68 -12 76 -25 9 -16 -1 -30 -75 -101
-135 -129 -278 -193 -460 -203 -209 -12 -386 50 -536 190 -139 130 -212 273
-233 454 -36 316 138 618 432 752 41 18 83 31 183 54 11 3 36 4 55 4 l35 -2
11 -115z"/>
<path d="M2215 1627 c-16 -8 -37 -26 -45 -41 -13 -25 -13 -31 4 -59 73 -124
71 -117 71 -217 0 -104 -16 -150 -70 -200 -15 -14 -41 -42 -57 -63 -30 -37
-30 -38 -29 -157 3 -195 -52 -368 -162 -519 -26 -35 -47 -71 -47 -81 0 -49 79
-103 222 -152 86 -30 103 -32 228 -33 158 0 221 14 349 77 105 51 249 184 316
292 177 286 140 660 -90 914 -92 100 -228 188 -355 227 -76 23 -294 31 -335
12z m335 -56 c240 -77 416 -258 492 -505 17 -56 22 -96 22 -191 0 -141 -16
-210 -77 -335 -34 -70 -58 -102 -136 -181 -79 -79 -111 -103 -181 -137 -127
-62 -193 -77 -340 -76 -114 0 -134 3 -220 33 -105 35 -190 83 -190 106 0 9 19
39 42 68 49 62 120 207 144 297 13 45 19 109 21 209 l2 143 54 57 c77 81 100
129 105 226 5 97 -7 147 -53 215 -41 61 -43 77 -12 90 38 17 254 4 327 -19z"/>
<path d="M1859 1213 c-14 -16 -37 -47 -52 -70 -75 -118 -235 -164 -372 -108
-74 31 -86 31 -163 1 -100 -39 -192 -56 -309 -56 -115 0 -190 14 -310 57 l-74
26 -31 -31 c-30 -29 -31 -35 -36 -129 -7 -161 42 -343 126 -466 78 -113 225
-233 347 -284 147 -62 341 -75 489 -34 139 38 228 92 342 206 87 87 107 113
147 195 58 117 77 188 84 307 6 99 -4 175 -39 283 -40 125 -95 163 -149 103z
m88 -53 c53 -107 76 -284 53 -413 -61 -354 -363 -610 -720 -610 -331 0 -608
211 -707 538 -21 72 -26 316 -6 336 9 9 28 5 80 -15 37 -14 97 -32 133 -41 86
-19 285 -19 370 0 72 17 150 44 164 57 17 14 58 9 105 -14 67 -33 178 -37 253
-9 72 28 136 77 168 130 39 66 61 92 74 89 6 -2 21 -24 33 -48z"/>
</g>
</svg>
