<?xml version="1.0" standalone="no"?>
<!DOCTYPE svg PUBLIC "-//W3C//DTD SVG 20010904//EN"
 "http://www.w3.org/TR/2001/REC-SVG-20010904/DTD/svg10.dtd">
<svg version="1.0" xmlns="http://www.w3.org/2000/svg"
 width="300.000000pt" height="278.000000pt" viewBox="0 0 300.000000 278.000000"
 preserveAspectRatio="xMidYMid meet">
<metadata>
Created by potrace 1.10, written by Peter Selinger 2001-2011
</metadata>
<g transform="translate(0.000000,278.000000) scale(0.100000,-0.100000)"
fill="#000000" stroke="none">
<path d="M1417 2648 c-7 -3 -29 -9 -50 -12 -67 -11 -186 -63 -226 -99 -21 -19
-42 -36 -47 -38 -14 -6 -78 -90 -108 -141 -63 -108 -93 -301 -65 -418 6 -25
12 -53 15 -64 8 -42 66 -150 108 -204 41 -52 106 -112 121 -112 3 0 19 -10 35
-22 16 -12 33 -19 36 -15 4 3 7 37 8 74 1 54 7 79 30 120 28 50 113 140 128
135 4 -1 26 8 48 19 24 12 51 19 66 16 22 -4 31 4 66 57 54 80 110 139 181
187 31 22 57 44 57 49 0 6 8 10 17 10 9 0 24 7 33 15 20 18 143 65 170 65 27
0 25 14 -10 72 -16 26 -30 52 -30 57 0 12 -108 122 -150 153 -42 31 -146 75
-198 83 -20 3 -45 8 -55 11 -27 8 -166 10 -180 2z m218 -53 c91 -22 173 -59
222 -100 53 -44 133 -150 133 -175 0 -12 -16 -23 -47 -35 -67 -25 -126 -60
-213 -126 -84 -64 -109 -89 -168 -170 -33 -46 -48 -58 -78 -64 -84 -15 -187
-88 -230 -161 -15 -25 -34 -70 -43 -100 -10 -30 -21 -56 -24 -57 -17 -5 -72
43 -114 98 -58 77 -78 116 -103 206 -54 197 4 405 155 554 59 59 82 74 145 97
41 16 93 32 115 37 62 14 184 12 250 -4z"/>
<path d="M2062 2140 c-52 -12 -103 -27 -115 -34 -12 -8 -35 -17 -50 -20 -39
-9 -176 -148 -214 -216 -34 -61 -68 -154 -79 -214 -6 -37 -6 -39 17 -33 13 3
44 13 69 22 49 18 120 15 162 -8 87 -47 141 -95 176 -157 11 -19 24 -34 29
-33 10 2 95 -24 165 -49 20 -8 45 -21 55 -30 10 -9 32 -23 48 -32 82 -46 173
-129 211 -193 14 -24 32 -43 39 -43 33 0 148 164 182 259 55 158 35 362 -52
511 -130 222 -379 327 -643 270z m268 -42 c25 -6 81 -27 125 -47 64 -30 92
-50 138 -102 95 -104 157 -258 157 -389 0 -64 -25 -173 -55 -237 -30 -66 -92
-153 -109 -153 -6 0 -43 32 -81 71 -113 114 -240 193 -376 232 -46 14 -61 24
-88 62 -37 52 -118 116 -176 141 -28 12 -66 17 -124 17 l-83 -1 6 30 c23 114
157 281 264 329 144 65 267 79 402 47z"/>
<path d="M755 2091 c-3 -6 -16 -10 -28 -10 -40 1 -95 -11 -142 -31 -26 -11
-52 -20 -59 -20 -7 0 -21 -9 -31 -20 -10 -11 -23 -20 -29 -20 -14 0 -131 -110
-140 -130 -3 -8 -15 -28 -26 -45 -52 -79 -90 -212 -90 -320 0 -89 30 -209 72
-294 33 -64 172 -220 185 -207 4 3 16 -3 29 -15 12 -11 28 -21 35 -23 8 -1 39
-12 70 -23 87 -33 203 -44 304 -29 62 10 188 55 211 77 11 10 23 17 25 14 9
-8 141 125 136 138 -2 7 -25 13 -51 15 -67 4 -129 36 -193 98 -71 69 -100 185
-69 274 15 44 15 45 -11 72 -92 96 -185 340 -170 449 5 39 -14 72 -28 50z m-8
-134 c20 -131 51 -211 127 -322 l40 -60 1 -105 c0 -88 4 -113 24 -157 29 -65
106 -139 186 -178 33 -17 61 -31 63 -32 2 -1 -1 -10 -7 -21 -16 -29 -98 -79
-182 -109 -64 -23 -89 -27 -194 -27 -131 0 -194 16 -303 77 -102 57 -205 205
-237 338 -31 135 -17 256 48 389 66 136 184 235 328 274 89 25 92 23 106 -67z"/>
<path d="M1868 1323 c-36 -6 -35 -22 2 -64 38 -43 55 -97 54 -175 -1 -77 -31
-142 -94 -204 -43 -42 -46 -49 -43 -85 18 -183 -30 -351 -142 -499 -34 -45
-42 -63 -33 -73 6 -7 16 -13 23 -13 8 0 26 -7 42 -15 71 -37 99 -45 198 -60
38 -6 102 -6 140 0 17 2 46 7 65 9 31 5 127 40 188 69 23 11 122 106 155 148
40 52 68 110 93 190 22 74 25 97 21 194 -5 128 -27 206 -84 304 -70 118 -164
190 -328 250 -53 20 -201 34 -257 24z m280 -79 c140 -56 225 -131 287 -253 47
-93 65 -168 65 -264 0 -138 -40 -248 -131 -363 -62 -79 -100 -106 -191 -143
-109 -43 -216 -57 -314 -41 -65 10 -175 47 -192 65 -3 2 14 33 36 67 80 123
122 264 122 411 l0 88 42 52 c93 117 118 243 70 351 -12 27 -22 53 -22 59 0
19 156 -1 228 -29z"/>
<path d="M1559 959 c-39 -78 -126 -142 -214 -160 -53 -11 -159 8 -180 31 -18
20 -37 17 -105 -13 -48 -21 -134 -47 -162 -48 -35 -1 -161 -1 -182 1 -39 2
-159 40 -191 59 -26 15 -36 17 -44 7 -10 -12 -8 -199 2 -241 18 -76 32 -109
72 -180 47 -83 161 -205 192 -205 9 0 24 -6 32 -14 15 -13 88 -40 142 -52 43
-10 220 -19 233 -12 6 4 31 9 53 12 23 2 55 12 72 20 16 9 38 16 47 16 39 0
174 118 232 203 43 62 93 189 94 240 1 23 5 47 9 52 7 10 6 34 -6 139 -7 61
-46 178 -62 183 -7 3 -22 -15 -34 -38z m42 -86 c5 -15 13 -61 16 -102 15 -194
-68 -382 -219 -499 -119 -91 -324 -126 -483 -83 -43 12 -106 36 -138 53 -110
59 -210 197 -247 343 -19 74 -27 175 -14 187 3 3 33 -3 67 -13 157 -48 301
-46 462 7 l86 28 52 -20 c35 -12 76 -19 123 -18 59 1 80 6 131 33 33 18 78 50
99 72 21 21 42 39 46 39 5 0 13 -12 19 -27z"/>
</g>
</svg>
